<?xml version="1.0" encoding="UTF-8"?>
<svg id="Layer_1" data-name="Layer 1" xmlns="http://www.w3.org/2000/svg" viewBox="0 0 180 180">
  <defs>
    <style>
      .cls-1 {
        fill: #1a1a1a;
      }

      .cls-1, .cls-2 {
        stroke-width: 0px;
      }

      .cls-2 {
        fill: #fff;
      }
    </style>
  </defs>
  <g id="Layer_2-2" data-name="Layer 2-2">
    <path class="cls-1" d="m87.75,4.65l-51,18.76c-1.67.62-3.08,1.81-3.97,3.37L5.63,74.26c-.89,1.56-1.21,3.38-.9,5.16l9.42,54c.31,1.77,1.23,3.38,2.59,4.53l41.58,35.25c1.36,1.16,3.09,1.79,4.87,1.79h54.28c1.78,0,3.51-.63,4.87-1.79l41.58-35.25c1.36-1.16,2.28-2.76,2.59-4.53l9.42-54c.31-1.77,0-3.6-.9-5.16l-27.14-47.49c-.89-1.56-2.3-2.75-3.97-3.37L92.93,4.65c-1.67-.62-3.51-.62-5.18,0Z"/>
    <g>
      <path class="cls-2" d="m.6,139.33h21.28l10.93-22.38h31.77l10.35,22.38h35.27L56.56,19.19.6,139.33Zm55.82-56.98l-12.24-21.5h24.63l-12.39,21.5h0Z"/>
      <path class="cls-2" d="m116.31,48.4l14.43,32.25c.44,1.03.73,2.21.73,3.39,0,4.42-3.64,8.1-8.16,8.1-3.06,0-6.12-1.91-7.43-4.86l-17.78-38.87h-25.07l54.21,116.9,52.76-116.9h-63.69Z"/>
    </g>
  </g>
</svg>