<?xml version="1.0" encoding="UTF-8"?><svg id="Layer_2" xmlns="http://www.w3.org/2000/svg" viewBox="0 0 396.94 374.08"><defs><style>.cls-1{fill:#fff;}.cls-2{fill:#1a1a1a;}</style></defs><g id="Layer_2-2"><path class="cls-2" d="M192.83,1.01L79.98,42.09c-3.7,1.35-6.82,3.96-8.79,7.37L11.14,153.46c-1.97,3.41-2.68,7.41-1.99,11.3l20.85,118.27c.68,3.88,2.72,7.4,5.74,9.93l92,77.2c3.02,2.53,6.84,3.92,10.78,3.92h120.09c3.94,0,7.76-1.39,10.78-3.92l92-77.2c3.02-2.53,5.05-6.05,5.74-9.93l20.85-118.27c.68-3.88-.02-7.88-1.99-11.3l-60.05-104.01c-1.97-3.41-5.08-6.02-8.79-7.37L204.3,1.01c-3.7-1.35-7.77-1.35-11.47,0Z"/><g><path class="cls-1" d="M0,295.95H47.08l24.18-49.01h70.29l22.89,49.01h78.03L123.82,32.84,0,295.95Zm123.5-124.79l-27.09-47.08h54.49l-27.41,47.08Z"/><path class="cls-1" d="M256.03,96.82l31.92,70.62c.97,2.26,1.61,4.84,1.61,7.42,0,9.67-8.06,17.73-18.06,17.73-6.77,0-13.54-4.19-16.44-10.64l-39.34-85.13h-55.46l119.95,256.02L396.94,96.82h-140.91Z"/></g></g></svg>