<?xml version="1.0" encoding="UTF-8"?>
<svg id="Layer_2" data-name="Layer 2" xmlns="http://www.w3.org/2000/svg" viewBox="0 0 180 177.51">
  <defs>
    <style>
      .cls-1 {
        fill: #1a1a1a;
        stroke-width: 0px;
      }
    </style>
  </defs>
  <g id="Layer_1-2" data-name="Layer 1">
    <g>
      <path class="cls-1" d="m174.99,65.99l-46.25,101.44-56.92-121.48h26.32l18.67,40.39c1.38,3.06,4.59,5.05,7.8,5.05,4.75,0,8.57-3.82,8.57-8.41,0-1.22-.3-2.45-.76-3.52l-15.15-33.51h46.15l-12.98-22.48c-.93-1.62-2.41-2.86-4.17-3.5L92.72.48c-1.76-.64-3.69-.64-5.44,0l-53.55,19.49c-1.76.64-3.24,1.88-4.17,3.5L1.07,72.82c-.93,1.62-1.27,3.52-.94,5.36l6.8,38.57L54.53,15.58l56.3,124.85h-37.03l-10.86-23.26H29.59l-11.47,23.26h-3.69l41.96,35.21c1.43,1.2,3.25,1.86,5.12,1.86h56.98c1.87,0,3.68-.66,5.12-1.86l43.65-36.63c1.43-1.2,2.4-2.87,2.72-4.71l9.89-56.12c.32-1.84,0-3.74-.94-5.36l-3.94-6.83Z"/>
      <polygon class="cls-1" points="43.72 60.24 56 81.59 68.43 60.24 43.72 60.24"/>
    </g>
  </g>
</svg>